<svg width="40" height="40" viewBox="0 0 40 40" fill="none" xmlns="http://www.w3.org/2000/svg">
<g clip-path="url(#clip0_3_2)">
<path d="M39.9586 12.5985L33.2837 37.5096C33.1391 38.0496 32.6486 38.4068 32.1142 38.4069C32.0109 38.4069 31.906 38.3935 31.8015 38.3656L15.4733 33.9905C14.8287 33.8177 14.4448 33.1527 14.6176 32.508L14.7937 31.851C14.9047 31.4368 15.3305 31.1913 15.7447 31.302C16.1589 31.4131 16.4047 31.8388 16.2936 32.253L16.2062 32.5791L31.8723 36.7768L38.3699 12.5275L31.7242 10.7469C31.31 10.6358 31.0641 10.2101 31.1751 9.79588C31.2862 9.38168 31.7122 9.13606 32.126 9.24684L39.1029 11.1162C39.7476 11.2891 40.1314 11.954 39.9586 12.5985ZM14.3324 4.8338C13.9035 4.8338 13.5559 5.18139 13.5559 5.61025V6.34918C13.5559 6.77805 13.9035 7.12564 14.3324 7.12564C14.7613 7.12564 15.1088 6.77805 15.1088 6.34918V5.61025C15.1088 5.18139 14.7613 4.8338 14.3324 4.8338ZM24.2332 15.2498C24.4231 15.5185 24.4231 15.8777 24.2332 16.1464L20.6342 21.2362C20.4887 21.442 20.2523 21.5644 20.0002 21.5644C19.7482 21.5644 19.5117 21.4421 19.3662 21.2362L15.7671 16.1464C15.5771 15.8778 15.5771 15.5185 15.7671 15.2498L19.3662 10.16C19.5118 9.95428 19.7482 9.83185 20.0002 9.83185C20.2523 9.83185 20.4887 9.95419 20.6342 10.16L24.2332 15.2498ZM22.6483 15.6981L20.0002 11.9531L17.3521 15.6981L20.0002 19.4429L22.6483 15.6981ZM29.5931 32.8497L29.4019 33.5634C29.2909 33.9776 29.5367 34.4034 29.951 34.5143C30.0183 34.5324 30.0859 34.541 30.1524 34.541C30.4952 34.541 30.809 34.3121 30.9019 33.9652L31.0931 33.2515C31.204 32.8373 30.9582 32.4115 30.544 32.3006C30.1298 32.1894 29.704 32.4355 29.5931 32.8497ZM9.69495 18.6275C9.91728 18.568 10.1311 18.5335 10.338 18.5244V2.80319C10.338 2.13578 10.8809 1.59286 11.5483 1.59286H28.4522C29.1196 1.59286 29.6626 2.13578 29.6626 2.80319V18.5243C29.8693 18.5334 30.0832 18.5679 30.3053 18.6274C31.7298 19.0091 32.5783 20.4786 32.1966 21.903C31.8274 23.2811 30.6479 24.328 29.6626 25.0437V28.5929C29.6626 29.2603 29.1196 29.8033 28.4522 29.8033H11.5483C10.8809 29.8033 10.338 29.2603 10.338 28.5929V25.0439C9.35262 24.3282 8.17318 23.2815 7.80367 21.9031C7.61879 21.2133 7.71377 20.4925 8.07112 19.8737C8.42846 19.2549 9.0052 18.8123 9.69495 18.6275ZM29.6625 23.0392C30.226 22.5068 30.5618 22.004 30.6965 21.5012C30.8565 20.9038 30.5007 20.2875 29.9033 20.1274C29.813 20.1032 29.7333 20.0885 29.6625 20.081V23.0392ZM11.8909 28.2505H28.1096V24.6529C28.1095 24.646 28.1095 24.639 28.1096 24.6321V19.4637C28.1093 19.4525 28.1093 19.4412 28.1096 19.43V3.14578H11.8909V19.4303C11.8912 19.4415 11.8912 19.4528 11.8909 19.4641V24.6317C11.891 24.6389 11.891 24.6462 11.8909 24.6534V28.2505ZM9.3037 21.5012C9.43855 22.0041 9.77449 22.5071 10.338 23.0396V20.0811C10.2671 20.0885 10.1874 20.1032 10.097 20.1274C9.80771 20.2049 9.56589 20.3906 9.41594 20.6503C9.26609 20.9099 9.22623 21.2121 9.3037 21.5012ZM14.9749 34.9422L8.12806 36.7768L1.63031 12.5276L8.27602 10.7469C8.69021 10.6358 8.93609 10.2101 8.82506 9.79588C8.71402 9.38168 8.28801 9.13589 7.87416 9.24684L0.897424 11.1163C0.585633 11.1998 0.32483 11.4001 0.163067 11.6803C0.00121917 11.9606 -0.0419174 12.2868 0.0416812 12.5986L6.71663 37.5094C6.80014 37.8213 7.00047 38.0823 7.28086 38.2443C7.46772 38.3521 7.67487 38.4073 7.88477 38.4073C7.98968 38.4073 8.09519 38.3935 8.19915 38.3657L15.377 36.4424C15.7912 36.3314 16.0371 35.9057 15.926 35.4915C15.8149 35.077 15.3891 34.8314 14.9749 34.9422ZM4.42565 13.5261C4.01145 13.6371 3.76566 14.0629 3.87661 14.4771L4.06787 15.1909C4.16088 15.5378 4.47457 15.7666 4.81741 15.7666C4.88393 15.7666 4.95157 15.758 5.01886 15.7399C5.43306 15.6289 5.67885 15.2031 5.5679 14.7889L5.37664 14.0751C5.2656 13.6608 4.84002 13.4151 4.42565 13.5261ZM25.668 24.2705C25.2391 24.2705 24.8915 24.6181 24.8915 25.047V25.7859C24.8915 26.2148 25.2391 26.5624 25.668 26.5624C26.0968 26.5624 26.4444 26.2148 26.4444 25.7859V25.047C26.4444 24.6182 26.0968 24.2705 25.668 24.2705Z" fill="white"/>
</g>
<defs>
<clipPath id="clip0_3_2">
<rect width="40" height="40" fill="white"/>
</clipPath>
</defs>
</svg>
